<?xml version="1.0" standalone="no"?>
<!DOCTYPE svg PUBLIC "-//W3C//DTD SVG 20010904//EN"
 "http://www.w3.org/TR/2001/REC-SVG-20010904/DTD/svg10.dtd">
<svg version="1.0" xmlns="http://www.w3.org/2000/svg"
 width="1000.000000pt" height="1000.000000pt" viewBox="0 0 1000.000000 1000.000000"
 preserveAspectRatio="xMidYMid meet">
<metadata>
Created by potrace 1.11, written by Peter Selinger 2001-2013
</metadata>
<g transform="translate(0.000000,1000.000000) scale(0.100000,-0.100000)"
fill="#000000" stroke="none">
<path d="M1760 9957 c25 -23 74 -67 110 -97 36 -30 70 -59 76 -65 6 -5 26 -23
45 -40 86 -76 130 -114 184 -160 32 -27 66 -57 74 -65 9 -9 47 -43 86 -75 38
-33 79 -69 91 -80 11 -11 34 -31 51 -45 17 -14 59 -50 94 -81 35 -31 120 -105
189 -165 69 -60 130 -113 136 -119 80 -72 131 -113 139 -112 6 1 11 131 12
362 0 198 1 372 2 386 l1 25 2038 -1 2037 0 233 -148 c128 -81 237 -147 242
-147 5 0 10 -3 12 -8 2 -6 313 -204 513 -326 28 -17 52 -34 55 -37 3 -3 29
-18 58 -34 28 -15 52 -32 52 -37 0 -4 3 -7 8 -6 4 1 41 -20 83 -47 l76 -50 -1
-3232 c-1 -2141 -4 -3235 -11 -3241 -5 -5 -39 -25 -75 -45 -36 -19 -111 -60
-168 -91 -56 -31 -105 -56 -108 -56 -3 0 -18 -8 -32 -18 -15 -11 -72 -43 -127
-72 -55 -29 -104 -56 -110 -60 -5 -4 -49 -28 -97 -53 -47 -26 -101 -55 -120
-65 -18 -10 -73 -40 -123 -67 -49 -26 -94 -51 -100 -55 -5 -4 -50 -29 -100
-56 -49 -26 -112 -61 -140 -76 -27 -16 -62 -34 -77 -40 -16 -7 -28 -16 -28
-19 0 -4 -13 -10 -30 -14 -16 -4 -30 -11 -30 -16 0 -5 -4 -9 -10 -9 -5 0 -48
-22 -95 -49 -47 -27 -85 -47 -85 -44 0 2 -12 -4 -27 -15 -16 -10 -41 -26 -58
-34 -16 -8 -46 -24 -65 -35 -20 -11 -71 -39 -115 -63 -44 -24 -89 -48 -100
-55 -11 -7 -54 -30 -95 -53 -148 -78 -283 -152 -365 -199 -33 -18 -80 -44
-105 -56 -25 -12 -47 -24 -50 -27 -3 -3 -18 -12 -35 -20 -16 -8 -96 -52 -178
-97 -83 -46 -153 -83 -158 -83 -4 0 -14 -6 -21 -12 -7 -7 -29 -21 -48 -30 -19
-9 -66 -35 -105 -56 -38 -21 -106 -58 -150 -82 -44 -24 -87 -48 -96 -53 -12
-8 -38 2 -105 38 -49 27 -109 59 -134 73 -25 13 -92 50 -150 82 -58 32 -129
71 -158 86 -51 28 -74 40 -237 129 -38 21 -108 59 -155 85 -47 26 -115 63
-152 84 -140 75 -199 107 -333 180 -76 42 -142 76 -146 76 -5 0 -9 5 -9 10 0
6 -7 10 -15 10 -9 0 -28 8 -43 19 -15 10 -112 65 -217 121 -104 57 -212 115
-240 130 -50 28 -109 60 -220 120 -33 18 -73 41 -90 50 -16 10 -70 39 -120 65
-49 27 -125 68 -169 92 -43 24 -82 43 -86 43 -5 0 -10 4 -12 8 -1 4 -23 18
-48 30 -25 12 -85 44 -135 72 -49 27 -117 64 -150 81 -33 17 -73 41 -90 53
-16 11 -31 20 -33 18 -1 -1 -21 8 -45 21 -23 14 -71 40 -107 60 l-65 35 -2
1838 c0 1012 -2 1847 -2 1856 -1 9 -13 23 -28 31 -16 7 -84 46 -152 85 -68 40
-127 72 -131 72 -4 0 -13 7 -20 15 -41 50 -40 121 -40 -2053 l0 -2068 42 -22
c24 -12 79 -41 123 -66 44 -24 109 -59 145 -77 36 -19 67 -36 70 -39 3 -3 21
-13 40 -24 19 -10 58 -31 85 -46 28 -15 79 -43 115 -62 36 -19 81 -44 100 -55
20 -11 69 -38 110 -61 41 -22 104 -56 140 -76 36 -21 79 -44 95 -52 17 -8 53
-27 80 -43 28 -15 79 -43 115 -63 36 -19 110 -59 165 -90 55 -30 132 -72 170
-93 39 -21 93 -50 120 -65 28 -15 75 -40 105 -56 30 -16 57 -31 60 -34 3 -3
28 -17 55 -31 28 -15 113 -61 189 -103 76 -42 142 -76 147 -76 4 0 9 -3 11 -7
2 -5 19 -16 38 -25 19 -10 67 -35 105 -56 105 -57 315 -173 355 -195 19 -11
71 -39 115 -62 44 -23 98 -53 120 -65 22 -13 78 -43 125 -68 47 -24 90 -48 95
-52 11 -8 74 -43 220 -121 55 -29 102 -57 103 -61 2 -4 12 -8 22 -8 10 0 20
-3 22 -7 3 -8 14 -14 146 -84 l73 -38 47 25 c26 14 65 35 87 47 101 57 167 93
255 140 52 27 102 56 111 64 8 7 20 13 25 13 5 0 25 10 44 22 19 12 42 23 50
24 8 2 16 8 18 13 2 6 8 11 12 11 5 0 69 33 142 74 73 40 165 90 203 111 152
82 201 108 230 125 17 10 66 37 110 60 44 24 114 62 155 84 41 23 89 48 105
56 17 8 32 18 35 21 4 5 105 60 240 130 25 13 47 26 50 29 3 3 25 15 50 28 91
47 125 67 132 77 4 6 8 7 8 3 0 -4 26 8 58 26 31 18 89 50 127 71 39 21 93 51
120 66 28 15 70 38 95 51 25 13 70 38 100 55 30 17 82 45 115 63 227 124 280
153 320 175 22 12 72 39 110 60 70 38 101 55 230 127 39 21 90 48 115 60 25
12 47 25 50 28 3 4 19 13 35 22 17 8 57 29 90 47 33 18 81 44 108 59 l47 25 0
3454 c0 3303 -1 3454 -18 3461 -27 11 -177 106 -180 114 -2 5 -8 8 -13 8 -8 0
-72 39 -296 182 -50 32 -96 58 -102 58 -6 0 -11 4 -11 9 0 5 -14 14 -30 21
-17 7 -30 16 -30 21 0 5 -5 9 -11 9 -6 0 -30 14 -54 30 -24 17 -48 30 -54 30
-6 0 -11 3 -11 8 0 7 -30 27 -132 85 -13 7 -56 34 -96 60 -40 26 -76 47 -81
47 -5 0 -11 3 -13 8 -1 4 -39 30 -83 57 -44 27 -83 54 -87 59 -4 6 -8 7 -8 3
0 -4 -15 3 -32 16 -18 13 -85 56 -149 95 l-117 72 -2753 0 -2754 0 45 -43z"/>
<path d="M3442 9252 c-20 -3 -23 -9 -21 -50 1 -26 0 -51 -1 -57 -1 -5 -2 -150
-1 -322 l1 -312 26 -25 c44 -41 77 -70 143 -127 35 -30 80 -69 100 -88 20 -18
53 -47 74 -65 21 -17 51 -42 66 -56 41 -38 111 -100 177 -155 32 -27 81 -71
109 -97 l51 -47 1 -276 c0 -193 -3 -275 -11 -276 -6 -1 -362 -2 -791 -3 l-780
-1 -2 -100 c-2 -55 -3 -109 -3 -120 -1 -11 -1 -67 -1 -125 0 -58 0 -112 0
-120 0 -8 1 -61 2 -118 0 -57 -1 -106 -4 -109 -6 -5 16 -33 26 -33 3 0 123
-67 267 -150 144 -82 266 -150 271 -150 5 0 9 -5 9 -12 0 -6 3 -8 7 -5 3 4 13
1 22 -7 9 -8 39 -26 66 -41 28 -14 64 -34 80 -44 32 -19 95 -55 173 -97 26
-15 55 -33 65 -42 9 -8 17 -12 17 -9 0 4 16 -5 36 -18 20 -14 43 -25 50 -25 8
0 14 -4 14 -10 0 -5 4 -10 9 -10 5 0 30 -12 57 -27 l49 -28 230 0 230 0 1 -87
c1 -47 4 -91 8 -96 3 -5 3 -12 0 -14 -6 -7 -6 -456 0 -467 3 -4 3 -10 1 -13
-7 -6 -7 -1417 0 -1427 2 -5 2 -11 -1 -13 -6 -7 -6 -456 0 -467 3 -4 3 -11 0
-14 -3 -3 -5 -71 -5 -151 2 -141 1 -145 -18 -141 -11 2 -23 0 -26 -5 -7 -11
-61 7 -97 32 -14 10 -28 18 -31 18 -2 0 -93 54 -202 120 -109 66 -199 120
-201 120 -2 0 -34 20 -71 43 -38 24 -73 46 -78 48 -6 2 -76 44 -156 92 l-145
89 0 740 c1 407 -1 743 -4 747 -7 9 -57 41 -109 69 -24 13 -56 32 -72 41 -45
27 -151 87 -204 116 -27 15 -54 31 -60 35 -5 4 -30 19 -55 32 -25 14 -101 57
-169 97 -69 39 -126 71 -128 71 -2 0 -20 11 -41 23 -20 13 -63 38 -95 56 -32
17 -79 45 -105 61 -26 16 -65 38 -87 49 -22 11 -47 25 -55 31 -8 5 -38 23 -67
39 -44 25 -52 27 -55 13 -2 -14 -2 -3119 1 -3231 1 -19 4 -32 7 -29 3 3 52
-20 110 -52 57 -32 113 -62 124 -65 11 -3 20 -11 20 -16 0 -6 4 -8 9 -4 5 3
12 1 16 -4 3 -6 27 -20 53 -33 26 -12 63 -32 82 -44 19 -11 76 -42 125 -69 50
-27 104 -56 120 -65 17 -9 66 -36 110 -60 44 -23 100 -54 125 -68 25 -14 74
-41 110 -60 36 -19 157 -85 270 -147 113 -62 286 -157 385 -210 99 -54 207
-114 240 -132 33 -19 72 -39 88 -44 15 -6 27 -15 27 -21 0 -5 4 -7 9 -3 5 3
12 1 16 -4 3 -6 27 -20 53 -33 26 -13 49 -25 52 -28 3 -3 23 -14 45 -25 22
-11 56 -29 75 -40 19 -12 73 -42 120 -67 47 -25 130 -70 185 -100 55 -30 136
-74 180 -98 44 -24 97 -54 118 -67 20 -13 37 -20 37 -17 0 4 8 0 18 -8 9 -8
43 -27 75 -43 32 -16 60 -32 63 -36 2 -4 27 6 56 22 29 16 85 45 123 66 39 21
84 45 100 55 17 9 50 27 75 39 25 13 47 25 50 29 3 3 30 18 60 33 30 16 87 46
125 68 39 22 86 47 105 56 19 8 37 18 40 22 6 9 43 25 53 23 4 -1 7 3 7 9 0 5
5 7 10 4 6 -3 10 -2 10 3 0 6 19 19 43 31 23 11 74 38 112 59 39 21 111 60
160 87 50 26 95 51 100 55 6 4 51 29 100 55 50 26 108 58 130 70 22 12 65 36
95 52 30 17 73 40 95 53 22 12 83 45 135 72 52 28 100 54 105 58 6 4 55 31
110 60 55 29 105 56 110 60 6 4 44 25 85 47 41 22 98 53 125 68 28 15 77 42
110 60 33 18 80 43 105 57 25 14 86 46 135 73 50 26 95 51 100 55 9 6 153 84
239 129 17 9 33 18 36 21 3 3 14 10 25 16 20 11 20 22 20 1642 l0 1631 -60
-32 c-33 -18 -61 -35 -63 -39 -2 -5 -9 -8 -17 -8 -7 0 -18 -7 -25 -15 -7 -8
-16 -13 -20 -10 -5 3 -11 1 -15 -5 -4 -6 -27 -22 -53 -35 -58 -31 -136 -75
-182 -104 -19 -11 -48 -28 -65 -36 -16 -9 -43 -24 -60 -34 -16 -10 -48 -28
-70 -41 -22 -12 -101 -57 -175 -99 -74 -43 -142 -81 -150 -84 -8 -4 -28 -16
-45 -27 -16 -11 -37 -23 -45 -27 -8 -5 -70 -39 -137 -78 -114 -64 -123 -71
-124 -100 0 -16 0 -351 0 -743 -1 -691 -1 -713 -20 -731 -11 -10 -31 -24 -46
-32 -15 -8 -145 -85 -288 -172 -143 -86 -266 -160 -274 -164 -7 -3 -61 -35
-120 -71 -58 -35 -122 -74 -141 -85 -20 -12 -57 -22 -86 -23 l-52 -3 0 1445
c0 794 3 1444 6 1445 4 1 111 2 238 3 155 1 236 5 245 12 8 7 37 24 64 38 28
15 68 38 90 52 22 13 54 31 70 39 60 29 140 77 146 87 3 5 9 9 13 8 5 -1 229
123 301 167 11 7 27 16 35 20 8 4 47 26 85 48 39 23 93 54 120 69 28 15 98 55
158 89 l107 61 0 46 c1 57 1 536 0 610 l0 55 -792 0 -793 -1 1 279 0 279 40
37 c23 20 69 61 104 91 100 87 155 135 160 140 3 3 39 34 80 69 41 36 80 70
85 75 6 6 60 54 120 105 61 52 121 107 134 121 l24 27 -1 362 c0 199 -3 365
-6 368 -6 7 -3101 11 -3144 5z"/>
</g>
</svg>
