<svg xmlns="http://www.w3.org/2000/svg" viewBox="0 0 765.21 1000"><g id="Border"><polygon points="604.45 0 53.02 0 186.74 116.65 186.74 37.33 594.02 37.33 727.89 121.29 727.89 768.44 382.19 957.25 382.19 957.25 37.33 769.14 37.33 398.52 0 377.22 0 791.35 382.01 1000 765.13 790.63 765.21 100.66 604.45 0" style="fill:#212121"/></g><g id="Inner"><polygon points="560.01 494.59 560.01 643.9 466.7 699.89 457.36 699.89 457.36 410.6 504.02 410.6 625.34 341.49 625.34 270.62 466.7 270.62 466.7 214.63 541.35 149.31 541.35 74.66 382.71 74.66 224.07 74.66 224.07 149.31 298.72 214.63 298.72 270.62 140.08 270.62 140.08 341.49 261.39 410.6 308.05 410.6 308.05 699.89 298.72 699.89 205.4 643.9 205.4 494.59 74.76 419.93 74.76 746.55 382.71 914.52 690.66 746.55 690.66 419.93 560.01 494.59" style="fill:#212121"/></g></svg>