<?xml version="1.0" encoding="utf-8"?>
<!-- Generator: Adobe Illustrator 25.3.1, SVG Export Plug-In . SVG Version: 6.00 Build 0)  -->
<svg version="1.1" id="Layer_1" xmlns="http://www.w3.org/2000/svg" xmlns:xlink="http://www.w3.org/1999/xlink" x="0px" y="0px"
	 viewBox="0 0 36 36" style="enable-background:new 0 0 36 36;" xml:space="preserve">
<style type="text/css">
	.st0{fill:#0039A6;}
	.st1{display:none;fill:#0039A6;}
	.st2{fill:#FFFFFF;}
	.st3{fill:#ED2939;}
	.st4{fill:#F9E300;}
</style>
<g id="Layer_2_1_">
	<path class="st0" d="M36,27c0,2.2-1.8,4-4,4H4c-2.2,0-4-1.8-4-4V9c0-2.2,1.8-4,4-4h28c2.2,0,4,1.8,4,4V27z"/>
	<rect id="field" x="-1.5" y="5" class="st1" width="39" height="26"/>
	<circle class="st2" cx="18" cy="18" r="7.8"/>
	<circle class="st3" cx="18" cy="18" r="7.4"/>
	<g id="use4055" transform="matrix(-1,0,0,1,150,0)">
		<g id="g4036">
			<path id="path78" class="st4" d="M133.8,18c1.3-0.8,1.9-2.3,1.9-3.9h-0.6c0,0,0,0,0,0.1c0,0.5-0.1,2.4-1.5,3.8
				c1.4,1.4,1.5,3.3,1.5,3.8c0,0,0,0,0,0.1h0.6C135.7,20.3,135.1,18.8,133.8,18"/>
			<path id="path82" class="st4" d="M134.9,14.2C134.9,14.1,134.9,14.1,134.9,14.2l-0.6-0.1c0,0,0,0,0,0.1c0,0.5-0.1,2.4-1.1,3.8
				c1,1.5,1.1,3.3,1.1,3.8c0,0,0,0,0,0.1h0.6c0,0,0,0,0-0.1c0-0.5-0.1-2.4-1.5-3.8C134.8,16.6,134.9,14.7,134.9,14.2"/>
			<path id="path86" class="st4" d="M132.9,18L132.9,18c1.1-1.7,1.1-3.3,1.1-3.8c0,0,0,0,0-0.1h-0.6v0.1c0,0.6-0.1,2.3-0.7,3.8
				c0.7,1.5,0.7,3.2,0.7,3.8v0.1h0.6c0,0,0,0,0-0.1C134.1,21.3,134,19.7,132.9,18"/>
			<path id="path90" class="st4" d="M132.5,18L132.5,18c0.7-1.5,0.8-3.3,0.8-3.8v-0.1h-0.6c0,0,0,0.1,0,0.2c0,0.6,0,2.2-0.4,3.7
				c0.3,1.5,0.4,3.1,0.4,3.7c0,0.1,0,0.1,0,0.2h0.6v-0.1C133.3,21.2,133.2,19.5,132.5,18"/>
			<path id="path94" class="st4" d="M132.1,18L132.1,18c0.3-1.5,0.4-3.1,0.4-3.7c0-0.1,0-0.1,0-0.2h-0.6v7.8h0.6c0,0,0-0.1,0-0.2
				C132.5,21.1,132.4,19.5,132.1,18"/>
		</g>
	</g>
	<g id="g4036_1_">
		<path id="path78_1_" class="st4" d="M20,18c1.3-0.8,1.9-2.3,1.9-3.9h-0.6c0,0,0,0,0,0.1c0,0.5-0.1,2.4-1.5,3.8
			c1.4,1.4,1.5,3.3,1.5,3.8c0,0,0,0,0,0.1h0.6C21.9,20.3,21.3,18.8,20,18"/>
		<path id="path82_1_" class="st4" d="M21.1,14.2C21.1,14.1,21.1,14.1,21.1,14.2l-0.6-0.1c0,0,0,0,0,0.1c0,0.5-0.1,2.4-1.1,3.8
			c1,1.5,1.1,3.3,1.1,3.8c0,0,0,0,0,0.1h0.6c0,0,0,0,0-0.1c0-0.5-0.1-2.4-1.5-3.8C21,16.6,21.1,14.7,21.1,14.2"/>
		<path id="path86_1_" class="st4" d="M19.2,18L19.2,18c1.1-1.7,1.1-3.3,1.1-3.8c0,0,0,0,0-0.1h-0.6v0.1c0,0.6-0.1,2.3-0.7,3.8
			c0.7,1.5,0.7,3.2,0.7,3.8v0.1h0.6c0,0,0,0,0-0.1C20.3,21.3,20.3,19.7,19.2,18"/>
		<path id="path90_1_" class="st4" d="M18.8,18L18.8,18c0.7-1.5,0.8-3.3,0.8-3.8v-0.1H19c0,0,0,0.1,0,0.2c0,0.6,0,2.2-0.4,3.7
			c0.3,1.5,0.4,3.1,0.4,3.7c0,0.1,0,0.1,0,0.2h0.6v-0.1C19.5,21.2,19.4,19.5,18.8,18"/>
		<path id="path94_1_" class="st4" d="M18.3,18L18.3,18c0.3-1.5,0.4-3.1,0.4-3.7c0-0.1,0-0.1,0-0.2h-0.6v7.8h0.6c0,0,0-0.1,0-0.2
			C18.7,21.1,18.7,19.5,18.3,18"/>
	</g>
</g>
<g id="Layer_1_1_">
</g>
</svg>
